<svg width="210" height="210" viewBox="0 0 210 210" fill="none" xmlns="http://www.w3.org/2000/svg">
<circle cx="105" cy="105" r="105" fill="white"/>
<path d="M104.974 30.25C132.996 30.25 157.415 45.6756 170.204 68.498C169.44 68.8399 168.689 69.2062 167.951 69.5947C155.571 47.604 132.008 32.75 104.974 32.75C65.0857 32.75 32.75 65.0857 32.75 104.974C32.7501 144.862 65.0857 177.197 104.974 177.197C132.444 177.197 156.332 161.86 168.543 139.282C169.286 139.658 170.043 140.011 170.812 140.34C158.2 163.77 133.447 179.697 104.974 179.697C63.705 179.697 30.2501 146.242 30.25 104.974C30.25 63.705 63.705 30.25 104.974 30.25Z" fill="black"/>
<circle cx="170.1" cy="105" r="23.1" fill="black"/>
</svg>